<svg width="440" height="122" viewBox="0 0 440 122" fill="none" xmlns="http://www.w3.org/2000/svg">
<g filter="url(#filter0_d_59_5)">
<path d="M35.4773 90.2784C28.9432 90.2784 23.3324 88.8438 18.6449 85.9744C13.9858 83.1051 10.392 79.142 7.86364 74.0852C5.36364 69 4.11364 63.1477 4.11364 56.5284C4.11364 49.8807 5.39205 44.0142 7.94886 38.929C10.5057 33.8153 14.1136 29.8381 18.7727 26.9972C23.4602 24.1278 29 22.6932 35.392 22.6932C40.7045 22.6932 45.4063 23.6733 49.4972 25.6335C53.6165 27.5653 56.8977 30.3068 59.3409 33.858C61.7841 37.3807 63.1761 41.5 63.517 46.2159H48.7727C48.1761 43.0625 46.7557 40.4347 44.5114 38.3324C42.2955 36.2017 39.3267 35.1364 35.6051 35.1364C32.4517 35.1364 29.6818 35.9886 27.2955 37.6932C24.9091 39.3693 23.0483 41.7841 21.7131 44.9375C20.4063 48.0909 19.7528 51.8693 19.7528 56.2727C19.7528 60.733 20.4063 64.5682 21.7131 67.7784C23.0199 70.9602 24.8523 73.4176 27.2102 75.1506C29.5966 76.8551 32.3949 77.7074 35.6051 77.7074C37.8778 77.7074 39.9091 77.2812 41.6989 76.429C43.517 75.5483 45.0369 74.2841 46.2585 72.6364C47.4801 70.9886 48.3182 68.9858 48.7727 66.6278H63.517C63.1477 71.2585 61.7841 75.3636 59.4261 78.9432C57.0682 82.4943 53.858 85.2784 49.7955 87.2955C45.733 89.2841 40.9602 90.2784 35.4773 90.2784ZM104.735 90.2784C98.343 90.2784 92.8033 88.8722 88.1158 86.0597C83.4283 83.2472 79.7919 79.3125 77.2067 74.2557C74.6499 69.1989 73.3714 63.2898 73.3714 56.5284C73.3714 49.767 74.6499 43.8437 77.2067 38.7585C79.7919 33.6733 83.4283 29.7244 88.1158 26.9119C92.8033 24.0994 98.343 22.6932 104.735 22.6932C111.127 22.6932 116.667 24.0994 121.354 26.9119C126.042 29.7244 129.664 33.6733 132.221 38.7585C134.806 43.8437 136.099 49.767 136.099 56.5284C136.099 63.2898 134.806 69.1989 132.221 74.2557C129.664 79.3125 126.042 83.2472 121.354 86.0597C116.667 88.8722 111.127 90.2784 104.735 90.2784ZM104.82 77.9205C108.286 77.9205 111.184 76.9687 113.513 75.0653C115.843 73.1335 117.576 70.5483 118.712 67.3097C119.877 64.071 120.46 60.4631 120.46 56.4858C120.46 52.4801 119.877 48.858 118.712 45.6193C117.576 42.3523 115.843 39.7528 113.513 37.821C111.184 35.8892 108.286 34.9233 104.82 34.9233C101.269 34.9233 98.3146 35.8892 95.9567 37.821C93.6271 39.7528 91.88 42.3523 90.7152 45.6193C89.5788 48.858 89.0107 52.4801 89.0107 56.4858C89.0107 60.4631 89.5788 64.071 90.7152 67.3097C91.88 70.5483 93.6271 73.1335 95.9567 75.0653C98.3146 76.9687 101.269 77.9205 104.82 77.9205ZM197.303 25.7188C196.905 21.9972 195.229 19.0994 192.274 17.0256C189.348 14.9517 185.541 13.9148 180.854 13.9148C177.558 13.9148 174.732 14.4119 172.374 15.4062C170.016 16.4006 168.212 17.75 166.962 19.4545C165.712 21.1591 165.072 23.1051 165.044 25.2926C165.044 27.1108 165.456 28.6875 166.28 30.0227C167.132 31.358 168.283 32.4943 169.732 33.4318C171.18 34.3409 172.786 35.108 174.547 35.733C176.308 36.358 178.084 36.8835 179.874 37.3097L188.055 39.3551C191.351 40.1222 194.518 41.1591 197.558 42.4659C200.626 43.7727 203.368 45.4205 205.783 47.4091C208.226 49.3977 210.158 51.7983 211.578 54.6108C212.999 57.4233 213.709 60.7187 213.709 64.4972C213.709 69.6108 212.402 74.1136 209.788 78.0057C207.175 81.8693 203.396 84.8949 198.453 87.0824C193.538 89.2415 187.587 90.321 180.598 90.321C173.808 90.321 167.913 89.2699 162.913 87.1676C157.942 85.0653 154.05 81.9972 151.237 77.9631C148.453 73.929 146.947 69.0142 146.72 63.2188H162.274C162.501 66.2585 163.439 68.7869 165.087 70.804C166.734 72.821 168.879 74.3267 171.521 75.321C174.192 76.3153 177.175 76.8125 180.47 76.8125C183.908 76.8125 186.919 76.3011 189.504 75.2784C192.118 74.2273 194.163 72.7784 195.641 70.9318C197.118 69.0568 197.871 66.8693 197.899 64.3693C197.871 62.0966 197.203 60.2216 195.896 58.7443C194.589 57.2386 192.757 55.9886 190.399 54.9943C188.07 53.9716 185.342 53.0625 182.217 52.267L172.288 49.7102C165.101 47.8636 159.419 45.0653 155.243 41.3153C151.095 37.5369 149.021 32.5227 149.021 26.2727C149.021 21.1307 150.413 16.6278 153.197 12.7642C156.01 8.90057 159.831 5.90341 164.661 3.77272C169.49 1.61363 174.959 0.534088 181.067 0.534088C187.26 0.534088 192.686 1.61363 197.345 3.77272C202.033 5.90341 205.712 8.87216 208.382 12.679C211.053 16.4574 212.43 20.804 212.516 25.7188H197.303ZM242.548 50.6477V89H227.121V1.72727H242.207V34.6676H242.974C244.508 30.9744 246.88 28.0625 250.09 25.9318C253.329 23.7727 257.448 22.6932 262.448 22.6932C266.994 22.6932 270.957 23.6449 274.337 25.5483C277.718 27.4517 280.332 30.2358 282.178 33.9006C284.053 37.5653 284.991 42.0398 284.991 47.3239V89H269.565V49.7102C269.565 45.3068 268.428 41.8835 266.156 39.4403C263.911 36.9687 260.758 35.733 256.695 35.733C253.968 35.733 251.525 36.3295 249.366 37.5227C247.235 38.6875 245.559 40.3778 244.337 42.5938C243.144 44.8097 242.548 47.4943 242.548 50.6477ZM329.266 90.2784C322.874 90.2784 317.335 88.8722 312.647 86.0597C307.96 83.2472 304.323 79.3125 301.738 74.2557C299.181 69.1989 297.903 63.2898 297.903 56.5284C297.903 49.767 299.181 43.8437 301.738 38.7585C304.323 33.6733 307.96 29.7244 312.647 26.9119C317.335 24.0994 322.874 22.6932 329.266 22.6932C335.658 22.6932 341.198 24.0994 345.886 26.9119C350.573 29.7244 354.195 33.6733 356.752 38.7585C359.337 43.8437 360.63 49.767 360.63 56.5284C360.63 63.2898 359.337 69.1989 356.752 74.2557C354.195 79.3125 350.573 83.2472 345.886 86.0597C341.198 88.8722 335.658 90.2784 329.266 90.2784ZM329.352 77.9205C332.817 77.9205 335.715 76.9687 338.045 75.0653C340.374 73.1335 342.107 70.5483 343.244 67.3097C344.408 64.071 344.991 60.4631 344.991 56.4858C344.991 52.4801 344.408 48.858 343.244 45.6193C342.107 42.3523 340.374 39.7528 338.045 37.821C335.715 35.8892 332.817 34.9233 329.352 34.9233C325.8 34.9233 322.846 35.8892 320.488 37.821C318.158 39.7528 316.411 42.3523 315.246 45.6193C314.11 48.858 313.542 52.4801 313.542 56.4858C313.542 60.4631 314.11 64.071 315.246 67.3097C316.411 70.5483 318.158 73.1335 320.488 75.0653C322.846 76.9687 325.8 77.9205 329.352 77.9205ZM373.723 113.545V23.5455H388.893V34.3693H389.788C390.584 32.7784 391.706 31.0881 393.155 29.2983C394.604 27.4801 396.564 25.9318 399.036 24.6534C401.507 23.3466 404.661 22.6932 408.496 22.6932C413.553 22.6932 418.112 23.9858 422.175 26.571C426.266 29.1278 429.504 32.9205 431.891 37.9489C434.305 42.9489 435.513 49.0852 435.513 56.358C435.513 63.5455 434.334 69.6534 431.976 74.6818C429.618 79.7102 426.408 83.5455 422.345 86.1875C418.283 88.8295 413.68 90.1506 408.538 90.1506C404.788 90.1506 401.678 89.5256 399.206 88.2756C396.734 87.0256 394.746 85.5199 393.24 83.7585C391.763 81.9687 390.612 80.2784 389.788 78.6875H389.149V113.545H373.723ZM388.851 56.2727C388.851 60.5057 389.447 64.2131 390.641 67.3949C391.862 70.5767 393.609 73.0625 395.882 74.8523C398.183 76.6136 400.967 77.4943 404.234 77.4943C407.643 77.4943 410.499 76.5852 412.8 74.767C415.101 72.9205 416.834 70.4062 417.999 67.2244C419.192 64.0142 419.788 60.3636 419.788 56.2727C419.788 52.2102 419.206 48.6023 418.041 45.4489C416.876 42.2955 415.143 39.8239 412.842 38.0341C410.541 36.2443 407.672 35.3494 404.234 35.3494C400.939 35.3494 398.141 36.2159 395.839 37.9489C393.538 39.6818 391.791 42.1108 390.598 45.2358C389.433 48.3608 388.851 52.0398 388.851 56.2727Z" fill="url(#paint0_linear_59_5)"/>
</g>
<defs>
<filter id="filter0_d_59_5" x="0.113525" y="0.53418" width="439.399" height="121.012" filterUnits="userSpaceOnUse" color-interpolation-filters="sRGB">
<feFlood flood-opacity="0" result="BackgroundImageFix"/>
<feColorMatrix in="SourceAlpha" type="matrix" values="0 0 0 0 0 0 0 0 0 0 0 0 0 0 0 0 0 0 127 0" result="hardAlpha"/>
<feOffset dy="4"/>
<feGaussianBlur stdDeviation="2"/>
<feComposite in2="hardAlpha" operator="out"/>
<feColorMatrix type="matrix" values="0 0 0 0 0 0 0 0 0 0 0 0 0 0 0 0 0 0 0.25 0"/>
<feBlend mode="normal" in2="BackgroundImageFix" result="effect1_dropShadow_59_5"/>
<feBlend mode="normal" in="SourceGraphic" in2="effect1_dropShadow_59_5" result="shape"/>
</filter>
<linearGradient id="paint0_linear_59_5" x1="-1" y1="-27" x2="420.5" y2="-27" gradientUnits="userSpaceOnUse">
<stop stop-color="#6A11CB"/>
<stop offset="0.586038" stop-color="#228A4C"/>
</linearGradient>
</defs>
</svg>
